HIERARCHY
ROOT hip
{
  OFFSET 0 0 0
  CHANNELS 6 Xposition Yposition Zposition Zrotation Yrotation Xrotation
  JOINT abdomen
  {
    OFFSET 0 20.6881 -0.73152
    CHANNELS 3 Zrotation Xrotation Yrotation
    JOINT chest
    {
      OFFSET 0 11.7043 -0.48768
      CHANNELS 3 Zrotation Xrotation Yrotation
      JOINT neck
      {
        OFFSET 0 22.1894 -2.19456
        CHANNELS 3 Zrotation Xrotation Yrotation
        JOINT head
        {
          OFFSET -0.24384 7.07133 1.2192
          CHANNELS 3 Zrotation Xrotation Yrotation
          JOINT leftEye
          {
            OFFSET 4.14528 8.04674 8.04672
            CHANNELS 3 Zrotation Xrotation Yrotation
            End Site
            {
              OFFSET 1 0 0
            }
          }
          JOINT rightEye
          {
            OFFSET -3.6576 8.04674 8.04672
            CHANNELS 3 Zrotation Xrotation Yrotation
            End Site
            {
              OFFSET 1 0 0
            }
          }
        }
      }
      JOINT rCollar
      {
        OFFSET -2.68224 19.2634 -4.8768
        CHANNELS 3 Zrotation Xrotation Yrotation
        JOINT rShldr
        {
          OFFSET -8.77824 -1.95073 1.46304
          CHANNELS 3 Zrotation Xrotation Yrotation
          JOINT rForeArm
          {
            OFFSET -28.1742 -1.7115 0.48768
            CHANNELS 3 Zrotation Xrotation Yrotation
            JOINT rHand
            {
              OFFSET -22.5879 0.773209 7.07136
              CHANNELS 3 Zrotation Xrotation Yrotation
              JOINT rThumb1
              {
                OFFSET -1.2192 -0.487915 3.41376
                CHANNELS 3 Zrotation Xrotation Yrotation
                JOINT rThumb2
                {
                  OFFSET -3.37035 -0.52449 3.41376
                  CHANNELS 3 Zrotation Xrotation Yrotation
                  End Site
                  {
                    OFFSET -1.78271 -1.18214 1.43049
                  }
                }
              }
              JOINT rIndex1
              {
                OFFSET -7.75947 0.938293 5.60832
                CHANNELS 3 Zrotation Xrotation Yrotation
                JOINT rIndex2
                {
                  OFFSET -2.54057 -0.884171 1.56538
                  CHANNELS 3 Zrotation Xrotation Yrotation
                  End Site
                  {
                    OFFSET -1.62519 -0.234802 1.16502
                  }
                }
              }
              JOINT rMid1
              {
                OFFSET -8.24714 1.18213 3.41376
                CHANNELS 3 Zrotation Xrotation Yrotation
                JOINT rMid2
                {
                  OFFSET -3.10165 -0.590103 1.0647
                  CHANNELS 3 Zrotation Xrotation Yrotation
                  End Site
                  {
                    OFFSET -2.48547 -0.328903 0.83742
                  }
                }
              }
              JOINT rRing1
              {
                OFFSET -8.82822 0.546677 1.51678
                CHANNELS 3 Zrotation Xrotation Yrotation
                JOINT rRing2
                {
                  OFFSET -2.60934 -0.819778 -0.0198488
                  CHANNELS 3 Zrotation Xrotation Yrotation
                  End Site
                  {
                    OFFSET -2.33842 -0.294052 0.168128
                  }
                }
              }
              JOINT rPinky1
              {
                OFFSET -8.27202 -0.0477905 -0.4584
                CHANNELS 3 Zrotation Xrotation Yrotation
                JOINT rPinky2
                {
                  OFFSET -1.82734 -0.647385 -0.700984
                  CHANNELS 3 Zrotation Xrotation Yrotation
                  End Site
                  {
                    OFFSET -1.69225 -0.51767 -0.607171
                  }
                }
              }
            }
          }
        }
      }
      JOINT lCollar
      {
        OFFSET 2.68224 19.2634 -4.8768
        CHANNELS 3 Zrotation Xrotation Yrotation
        JOINT lShldr
        {
          OFFSET 8.77824 -1.95073 1.46304
          CHANNELS 3 Zrotation Xrotation Yrotation
          JOINT lForeArm
          {
            OFFSET 28.1742 -1.7115 0.48768
            CHANNELS 3 Zrotation Xrotation Yrotation
            JOINT lHand
            {
              OFFSET 22.5879 0.773209 7.07136
              CHANNELS 3 Zrotation Xrotation Yrotation
              JOINT lThumb1
              {
                OFFSET 1.2192 -0.487915 3.41376
                CHANNELS 3 Zrotation Xrotation Yrotation
                JOINT lThumb2
                {
                  OFFSET 3.37035 -0.52449 3.41376
                  CHANNELS 3 Zrotation Xrotation Yrotation
                  End Site
                  {
                    OFFSET 1.78271 -1.18214 1.43049
                  }
                }
              }
              JOINT lIndex1
              {
                OFFSET 7.75947 0.938293 5.60832
                CHANNELS 3 Zrotation Xrotation Yrotation
                JOINT lIndex2
                {
                  OFFSET 2.54057 -0.884171 1.56538
                  CHANNELS 3 Zrotation Xrotation Yrotation
                  End Site
                  {
                    OFFSET 1.62519 -0.234802 1.16502
                  }
                }
              }
              JOINT lMid1
              {
                OFFSET 8.24714 1.18213 3.41376
                CHANNELS 3 Zrotation Xrotation Yrotation
                JOINT lMid2
                {
                  OFFSET 3.10165 -0.590103 1.0647
                  CHANNELS 3 Zrotation Xrotation Yrotation
                  End Site
                  {
                    OFFSET 2.48547 -0.328903 0.83742
                  }
                }
              }
              JOINT lRing1
              {
                OFFSET 8.82822 0.546677 1.51678
                CHANNELS 3 Zrotation Xrotation Yrotation
                JOINT lRing2
                {
                  OFFSET 2.60934 -0.819778 -0.0198488
                  CHANNELS 3 Zrotation Xrotation Yrotation
                  End Site
                  {
                    OFFSET 2.33842 -0.294052 0.168128
                  }
                }
              }
              JOINT lPinky1
              {
                OFFSET 8.27202 -0.0477905 -0.4584
                CHANNELS 3 Zrotation Xrotation Yrotation
                JOINT lPinky2
                {
                  OFFSET 1.82734 -0.647385 -0.700984
                  CHANNELS 3 Zrotation Xrotation Yrotation
                  End Site
                  {
                    OFFSET 1.69225 -0.51767 -0.607171
                  }
                }
              }
            }
          }
        }
      }
    }
  }
  JOINT rButtock
  {
    OFFSET -8.77824 4.35084 1.2192
    CHANNELS 3 Zrotation Xrotation Yrotation
    JOINT rThigh
    {
      OFFSET 0 -1.70687 -2.19456
      CHANNELS 3 Zrotation Xrotation Yrotation
      JOINT rShin
      {
        OFFSET 0 -36.8199 0.73152
        CHANNELS 3 Zrotation Xrotation Yrotation
        JOINT rFoot
        {
          OFFSET 0.73152 -45.1104 -5.12064
          CHANNELS 3 Zrotation Xrotation Yrotation
          End Site
          {
            OFFSET -1.1221 -3.69964 12.103
          }
        }
      }
    }
  }
  JOINT lButtock
  {
    OFFSET 8.77824 4.35084 1.2192
    CHANNELS 3 Zrotation Xrotation Yrotation
    JOINT lThigh
    {
      OFFSET 0 -1.70687 -2.19456
      CHANNELS 3 Zrotation Xrotation Yrotation
      JOINT lShin
      {
        OFFSET 0 -36.8199 0.73152
        CHANNELS 3 Zrotation Xrotation Yrotation
        JOINT lFoot
        {
          OFFSET -0.73152 -45.1104 -5.12064
          CHANNELS 3 Zrotation Xrotation Yrotation
          End Site
          {
            OFFSET 1.1221 -3.69964 12.103
          }
        }
      }
    }
  }
}
MOTION
Frames:	8
Frame Time:	0.00833333
125.485 84.5294 7.82698 0.0 0.0 0.0 -0.769343 -0.00386034 -0.0215833 -0.212072 -0.00504125 -0.0367438 1.2919e-14 7.95139e-16 -1.2424e-16 3.88593e-14 9.54166e-15 -4.25523e-16 -0.0 0.0 0.0 -0.0 0.0 0.0 6.40973e-15 6.60027e-18 4.96962e-17 1.37171e-13 1.36664e-16 1.98785e-16 2.34655e-12 -6.93361e-13 -5.40694e-14 2.68007e-11 7.30559e-13 -2.38542e-13 6.32245e-11 8.00943e-14 -6.36111e-13 1.09179e-10 1.36764e-13 -1.1116e-12 6.3233e-11 8.18993e-14 -6.39292e-13 7.73091 5.47488 0.417314 6.32245e-11 8.01102e-14 -6.36111e-13 2.90554 0.965183 0.102902 6.3236e-11 8.0806e-14 -6.42472e-13 10.2786 0.731801 0.0259123 6.32207e-11 8.18993e-14 -6.39292e-13 2.22167 -0.733487 -0.20892 6.31292e-15 5.24139e-18 -1.49089e-16 1.33653e-13 6.21202e-17 -1.78906e-15 2.33994e-12 7.03698e-13 -5.725e-14 2.67905e-11 -6.788e-13 -2.38542e-13 6.31976e-11 5.4491e-14 -6.52014e-13 1.09149e-10 9.54166e-14 -1.11319e-12 6.31921e-11 5.64548e-14 -6.45653e-13 -7.73091 5.47488 -0.417314 6.31981e-11 5.41688e-14 -6.52014e-13 -2.90554 0.965183 -0.102902 6.31826e-11 5.52621e-14 -6.45653e-13 -10.2786 0.731801 -0.0259123 6.32014e-11 5.4467e-14 -6.48833e-13 -2.22167 -0.733487 0.20892 -2.03217e-16 0.0 -3.88251e-19 -0.0539485 -2.09674 -0.0177075 -0.00903989 -1.75491 -0.0760405 -0.528894 3.85119 0.139771 2.03217e-16 0.0 3.88251e-19 -1.11491 -4.98913 0.0938598 0.0011517 3.48417 -0.0050687 0.537048 1.50463 -0.0922851
120.314 81.9463 -0.435248 -74.6331 -83.9047 83.0909 -0.36564 -0.555869 -0.141386 -0.510999 0.907161 -0.0556037 -0.80547 4.40848 -0.603985 3.66575 -13.0054 0.117753 -0.0 0.0 0.0 -0.0 0.0 0.0 3.65817e-15 -9.7061e-14 -2.8917e-15 20.8338 6.58695 3.48353 -5.0828 -2.51193 7.70687 0.00278198 1.28801 0.180921 2.7844e-10 -3.89599e-11 1.25984e-10 4.81727e-10 -6.68284e-11 2.16832e-10 2.78451e-10 -3.89572e-11 1.2598e-10 7.73091 5.47488 0.417314 2.78441e-10 -3.8959e-11 1.25982e-10 2.90554 0.965183 0.102902 2.78451e-10 -3.89605e-11 1.25978e-10 10.2786 0.731801 0.0259123 2.78436e-10 -3.89591e-11 1.25981e-10 2.22167 -0.733487 -0.20892 3.56044e-15 -9.70621e-14 -3.08815e-15 -20.9527 11.2415 -3.75321 4.87963 -2.36633 -7.45294 -0.00314807 1.25062 -0.175615 2.37499e-10 6.6421e-12 1.46647e-10 4.11275e-10 1.15356e-11 2.52333e-10 2.37495e-10 6.64276e-12 1.46653e-10 -7.73091 5.47488 -0.417314 2.37499e-10 6.63943e-12 1.46647e-10 -2.90554 0.965183 -0.102902 2.37487e-10 6.64096e-12 1.46651e-10 -10.2786 0.731801 -0.0259123 2.37504e-10 6.64139e-12 1.46646e-10 -2.22167 -0.733487 0.20892 -2.03217e-16 0.0 -3.88251e-19 -2.64522 -12.9022 1.0532 0.0328019 10.5529 0.12453 -1.14608 -1.55646 -4.70094 2.03217e-16 0.0 3.88251e-19 1.55022 -9.07854 0.460189 -0.0540867 13.1803 -0.222041 1.30863 -8.54722 3.97185
120.717 81.8448 -0.143796 -80.2749 -85.0687 89.1502 0.0911613 -1.12705 -0.276759 -0.835555 1.86784 -0.0781409 -1.54591 9.07889 -1.25639 7.62622 -26.7618 0.268575 -0.0 0.0 0.0 -0.0 0.0 0.0 -3.97006e-16 -1.9518e-13 -6.60959e-15 41.9397 13.4313 7.31973 -9.72097 -5.01001 15.8906 -0.00343835 2.58736 0.363788 5.32599e-10 -8.32442e-11 3.08737e-10 9.22046e-10 -1.42629e-10 5.31565e-10 5.32612e-10 -8.32405e-11 3.08732e-10 7.73091 5.47488 0.417314 5.326e-10 -8.32422e-11 3.08733e-10 2.90554 0.965183 0.102902 5.32609e-10 -8.32462e-11 3.08731e-10 10.2786 0.731801 0.0259123 5.32594e-10 -8.32446e-11 3.08735e-10 2.22167 -0.733487 -0.20892 -4.9755e-16 -1.95181e-13 -6.80216e-15 -41.397 22.9922 -8.22754 9.36361 -4.72559 -15.3559 0.00186837 2.55855 -0.359561 4.55337e-10 7.44269e-12 2.97209e-10 7.88561e-10 1.29771e-11 5.11191e-10 4.55333e-10 7.44195e-12 2.97215e-10 -7.73091 5.47488 -0.417314 4.55336e-10 7.43751e-12 2.97211e-10 -2.90554 0.965183 -0.102902 4.55327e-10 7.43952e-12 2.97211e-10 -10.2786 0.731801 -0.0259123 4.55343e-10 7.44128e-12 2.97204e-10 -2.22167 -0.733487 0.20892 -2.03217e-16 0.0 -3.88251e-19 -4.88757 -24.2902 2.33207 -0.0231465 23.5741 0.363025 -2.80428 -7.2047 -9.91681 2.03217e-16 0.0 3.88251e-19 4.45341 -13.3807 0.86689 -0.0259204 23.4161 -0.478589 3.73668 -18.9995 8.62871
121.069 81.7556 0.2102 -86.0486 -86.2061 95.3289 0.434839 -1.65985 -0.38113 -1.10705 2.73156 -0.0934087 -2.13117 13.2195 -1.85579 11.1966 -39.0155 0.442999 -0.0 0.0 0.0 -0.0 0.0 0.0 -1.84496e-15 -2.91196e-13 -8.77448e-15 59.9902 19.4598 11.0181 -13.2697 -6.9916 23.2814 -0.0161035 3.86386 0.543861 7.08871e-10 -1.1704e-10 3.79223e-10 1.22682e-09 -2.00759e-10 6.5272e-10 7.08886e-10 -1.17035e-10 3.79218e-10 7.73091 5.47488 0.417314 7.08873e-10 -1.17037e-10 3.79218e-10 2.90554 0.965183 0.102902 7.08881e-10 -1.17043e-10 3.79218e-10 10.2786 0.731801 0.0259123 7.08866e-10 -1.17041e-10 3.79222e-10 2.22167 -0.733487 -0.20892 -1.9445e-15 -2.91197e-13 -8.96628e-15 -57.7501 33.088 -13.2162 12.8338 -6.61956 -22.4978 0.0135968 3.75172 -0.527849 5.86103e-10 1.98173e-11 4.41244e-10 1.01553e-09 3.4416e-11 7.59225e-10 5.861e-10 1.98154e-11 4.4125e-10 -7.73091 5.47488 -0.417314 5.86102e-10 1.981e-11 4.41246e-10 -2.90554 0.965183 -0.102902 5.86095e-10 1.98124e-11 4.41244e-10 -10.2786 0.731801 -0.0259123 5.86109e-10 1.98152e-11 4.41235e-10 -2.22167 -0.733487 0.20892 -2.03217e-16 0.0 -3.88251e-19 -6.39411 -34.4612 3.77914 -0.18563 35.1671 0.63523 -5.1368 -11.9938 -14.7045 2.03217e-16 0.0 3.88251e-19 7.04434 -17.2544 1.2317 0.0920324 32.5705 -0.757611 7.56279 -28.0318 13.5867
121.371 81.6368 0.517882 -96.5426 -87.1794 106.171 0.501234 -2.09678 -0.407853 -1.24755 3.35291 -0.0904118 -2.53482 16.0413 -2.28013 13.6296 -47.5131 0.587614 -0.0 0.0 0.0 -0.0 0.0 0.0 3.22515e-15 -3.81953e-13 -7.05686e-15 72.1838 23.7304 13.8486 -15.4591 -8.19413 28.5387 -0.0317971 5.08331 0.716312 6.90427e-10 -1.24614e-10 1.69043e-10 1.19274e-09 -2.14713e-10 2.8993e-10 6.90442e-10 -1.24609e-10 1.69037e-10 7.73091 5.47488 0.417314 6.9043e-10 -1.24611e-10 1.69037e-10 2.90554 0.965183 0.102902 6.90436e-10 -1.24618e-10 1.69039e-10 10.2786 0.731801 0.0259123 6.90422e-10 -1.24616e-10 1.69043e-10 2.22167 -0.733487 -0.20892 3.13617e-15 -3.81953e-13 -7.25564e-15 -67.7331 39.6463 -17.6195 15.009 -7.79804 -27.6072 0.026686 4.65812 -0.656116 4.99189e-10 6.11271e-11 5.68957e-10 8.66694e-10 1.05849e-10 9.80197e-10 4.99186e-10 6.11243e-11 5.68963e-10 -7.73091 5.47488 -0.417314 4.99187e-10 6.11183e-11 5.6896e-10 -2.90554 0.965183 -0.102902 4.99183e-10 6.11209e-11 5.68956e-10 -10.2786 0.731801 -0.0259123 4.99196e-10 6.11243e-11 5.68947e-10 -2.22167 -0.733487 0.20892 -2.03217e-16 0.0 -3.88251e-19 -7.10945 -41.6358 5.13004 -0.389022 43.1912 0.886702 -7.15692 -15.0309 -18.0538 2.03217e-16 0.0 3.88251e-19 8.73267 -20.0601 1.45755 0.244645 39.0229 -1.00208 11.4715 -34.0843 17.8922
121.68 81.5326 0.759695 -111.728 -87.6452 121.617 0.137344 -2.41739 -0.325332 -1.19024 3.64236 -0.0615699 -2.7843 17.0159 -2.42735 14.3546 -50.7487 0.600977 -0.0 0.0 0.0 -0.0 0.0 0.0 2.33257e-14 -4.56256e-13 5.17694e-15 77.0681 25.7671 15.0768 -16.2978 -8.65239 30.7144 -0.0487351 6.32834 0.892823 3.07384e-10 -8.82495e-11 -6.23892e-10 5.23547e-10 -1.55085e-10 -1.0778e-09 3.07396e-10 -8.8244e-11 -6.23899e-10 7.73091 5.47488 0.417314 3.07386e-10 -8.82468e-11 -6.23897e-10 2.90554 0.965183 0.102902 3.07392e-10 -8.82518e-11 -6.23895e-10 10.2786 0.731801 0.0259123 3.0738e-10 -8.82505e-11 -6.23889e-10 2.22167 -0.733487 -0.20892 2.32659e-14 -4.56255e-13 4.95564e-15 -71.184 41.7876 -19.5637 15.8816 -8.28291 -29.7989 0.034947 5.17422 -0.729308 -1.71087e-11 1.67867e-10 7.07088e-10 -2.30531e-11 2.9035e-10 1.22142e-09 -1.71118e-11 1.67864e-10 7.07095e-10 -7.73091 5.47488 -0.417314 -1.71119e-11 1.67858e-10 7.07091e-10 -2.90554 0.965183 -0.102902 -1.71139e-11 1.6786e-10 7.07088e-10 -10.2786 0.731801 -0.0259123 -1.70995e-11 1.67863e-10 7.07081e-10 -2.22167 -0.733487 0.20892 -2.03217e-16 0.0 -3.88251e-19 -7.40346 -44.6926 5.92947 -0.493456 46.2044 0.996586 -7.83889 -15.8416 -19.1641 2.03217e-16 0.0 3.88251e-19 9.05604 -21.3843 1.45316 0.32878 41.7039 -1.11954 13.5918 -36.4617 20.1435
121.97 81.4502 0.945666 -126.429 -87.6965 136.502 -0.530499 -2.65406 -0.164738 -0.992379 3.69439 -0.0142697 -2.94509 16.6724 -2.3683 13.8268 -50.2261 0.490736 -0.0 0.0 0.0 -0.0 0.0 0.0 5.38812e-14 -5.19241e-13 2.46804e-14 76.9713 26.2767 15.0324 -16.296 -8.68403 30.6693 -0.0690385 7.58654 1.07211 -3.31706e-10 -2.08442e-11 -1.82404e-09 -5.91645e-10 -4.34581e-11 -3.14774e-09 -3.31699e-10 -2.08385e-11 -1.82405e-09 7.73091 5.47488 0.417314 -3.31705e-10 -2.08426e-11 -1.82404e-09 2.90554 0.965183 0.102902 -3.31699e-10 -2.08444e-11 -1.82404e-09 10.2786 0.731801 0.0259123 -3.3171e-10 -2.08439e-11 -1.82404e-09 2.22167 -0.733487 -0.20892 5.38636e-14 -5.19238e-13 2.44257e-14 -70.6542 40.9549 -19.225 15.9404 -8.36656 -29.8881 0.0379104 5.41103 -0.762874 -8.34174e-10 3.20156e-10 8.51076e-10 -1.4318e-09 5.53564e-10 1.47435e-09 -8.34177e-10 3.20153e-10 8.51083e-10 -7.73091 5.47488 -0.417314 -8.34178e-10 3.20147e-10 8.5108e-10 -2.90554 0.965183 -0.102902 -8.34179e-10 3.2015e-10 8.51079e-10 -10.2786 0.731801 -0.0259123 -8.34162e-10 3.20151e-10 8.51075e-10 -2.22167 -0.733487 0.20892 -2.03217e-16 0.0 -3.88251e-19 -7.63902 -44.823 6.13626 -0.475441 45.6398 0.962658 -7.38537 -15.1399 -18.6077 2.03217e-16 0.0 3.88251e-19 8.39308 -21.65 1.27875 0.326237 41.6911 -1.11696 13.8531 -36.3907 20.5209
122.25 81.3996 1.08268 -136.282 -87.4717 146.481 -1.2474 -2.82848 0.0264379 -0.762366 3.63955 0.0400552 -3.06207 15.8098 -2.22989 12.8031 -48.2068 0.334432 -0.0 0.0 0.0 -0.0 0.0 0.0 7.91703e-14 -5.92241e-13 3.89626e-14 74.8831 26.1541 14.4669 -15.9724 -8.55814 29.7521 -0.0912994 8.68125 1.22923 -9.26021e-10 4.74113e-11 -2.88336e-09 -1.6281e-09 7.01922e-11 -4.97471e-09 -9.26019e-10 4.74171e-11 -2.88337e-09 7.73091 5.47488 0.417314 -9.26021e-10 4.74119e-11 -2.88336e-09 2.90554 0.965183 0.102902 -9.26015e-10 4.74133e-11 -2.88336e-09 10.2786 0.731801 0.0259123 -9.26024e-10 4.7413e-11 -2.88335e-09 2.22167 -0.733487 -0.20892 7.91917e-14 -5.92237e-13 3.86776e-14 -68.4879 38.9195 -18.0188 15.6824 -8.29718 -29.1329 0.038186 5.51839 -0.778032 -1.57214e-09 4.50791e-10 9.44179e-10 -2.70447e-09 7.79338e-10 1.63892e-09 -1.57214e-09 4.50788e-10 9.44187e-10 -7.73091 5.47488 -0.417314 -1.57214e-09 4.50783e-10 9.44183e-10 -2.90554 0.965183 -0.102902 -1.57214e-09 4.50785e-10 9.44184e-10 -10.2786 0.731801 -0.0259123 -1.57212e-09 4.50786e-10 9.44183e-10 -2.22167 -0.733487 0.20892 -2.03217e-16 0.0 -3.88251e-19 -7.88064 -43.7291 5.97706 -0.412324 43.6697 0.8761 -6.52356 -13.9263 -17.323 2.03217e-16 0.0 3.88251e-19 7.40649 -21.4725 1.05842 0.287018 40.5853 -1.06434 13.2875 -35.3365 20.0766
